<svg xmlns="http://www.w3.org/2000/svg" width="261" height="450" viewBox="0 0 261 450" version="1.1">
	<path d="M 124 61.974 C 117.675 62.305, 102.913 62.378, 91.195 62.135 L 69.890 61.693 44.283 87.300 L 18.675 112.907 19.572 144.704 C 20.066 162.192, 20.476 219.575, 20.485 272.222 L 20.500 367.944 22.762 370.206 L 25.023 372.468 88.262 373.658 C 123.043 374.313, 162.289 374.883, 175.475 374.925 L 199.450 375 225.082 349.250 L 250.713 323.500 251.825 317.500 C 253.887 306.381, 255.046 294.586, 255.681 278.252 C 256.509 256.966, 257.336 258, 239.474 258 C 232.206 258, 214.613 258.653, 200.379 259.451 C 186.146 260.249, 167.750 261.036, 159.500 261.201 L 144.500 261.500 143.772 252 C 142.245 232.062, 144.730 132.079, 148.031 80.607 C 148.953 66.237, 148.890 64.536, 147.370 62.857 C 145.554 60.850, 145.486 60.847, 124 61.974 M 72.350 91.430 C 74.916 186.494, 75.059 199.424, 74.174 256.486 C 73.662 289.478, 73.447 317.001, 73.695 317.648 C 73.973 318.371, 77.686 319.041, 83.323 319.387 C 94.299 320.060, 188.824 321.500, 222 321.500 L 245.500 321.500 246.704 315.500 C 248.474 306.674, 249.829 293.374, 250.617 277.088 L 251.314 262.676 230.907 263.361 C 219.683 263.738, 204.425 264.454, 197 264.951 C 189.575 265.449, 174.500 266.171, 163.500 266.555 C 144.304 267.226, 143.399 267.172, 141 265.215 L 138.500 263.175 138.528 211.337 C 138.554 163.728, 139.675 129.038, 142.822 78.416 L 143.511 67.333 107.606 67.347 L 71.700 67.361 72.350 91.430" stroke="none" fill="black" fill-rule="evenodd"/>
</svg>